<svg xmlns="http://www.w3.org/2000/svg" xmlns:svg="http://www.w3.org/2000/svg" id="svg2" width="300" height="250" version="1.1"><defs id="defs4"><marker id="EmptyTriangleInL" orient="auto" refX="0" refY="0" style="overflow:visible"><path id="path4222" d="m 5.77,0 -8.65,5 0,-10 8.65,5 z" transform="matrix(-0.8,0,0,-0.8,4.8,0)" style="fill:#fff;fill-rule:evenodd;stroke:#000;stroke-width:1pt;marker-start:none"/></marker><marker id="EmptyTriangleOutM" orient="auto" refX="0" refY="0" style="overflow:visible"><path id="path4234" d="m 5.77,0 -8.65,5 0,-10 8.65,5 z" transform="matrix(0.4,0,0,0.4,-1.8,0)" style="fill:#fff;fill-rule:evenodd;stroke:#000;stroke-width:1pt;marker-start:none"/></marker><marker id="Arrow1Mend" orient="auto" refX="0" refY="0" style="overflow:visible"><path id="path4079" d="M 0,0 5,-5 -12.5,0 5,5 0,0 z" transform="matrix(-0.4,0,0,-0.4,-4,0)" style="fill-rule:evenodd;stroke:#000;stroke-width:1pt;marker-start:none"/></marker><marker id="Arrow2Lstart" orient="auto" refX="0" refY="0" style="overflow:visible"><path id="path4088" d="M 8.7185878,4.0337352 -2.2072895,0.01601326 8.7185884,-4.0017078 c -1.7454984,2.3720609 -1.7354408,5.6174519 -6e-7,8.035443 z" transform="matrix(1.1,0,0,1.1,1.1,0)" style="font-size:12px;fill-rule:evenodd;stroke-width:.625;stroke-linejoin:round"/></marker><marker id="Arrow1Lstart" orient="auto" refX="0" refY="0" style="overflow:visible"><path id="path4070" d="M 0,0 5,-5 -12.5,0 5,5 0,0 z" transform="matrix(0.8,0,0,0.8,10,0)" style="fill-rule:evenodd;stroke:#000;stroke-width:1pt;marker-start:none"/></marker><marker id="Arrow1Send" orient="auto" refX="0" refY="0" style="overflow:visible"><path id="path4085" d="M 0,0 5,-5 -12.5,0 5,5 0,0 z" transform="matrix(-0.2,0,0,-0.2,-1.2,0)" style="fill-rule:evenodd;stroke:#000;stroke-width:1pt;marker-start:none"/></marker></defs><metadata id="metadata7"/><g id="layer1" transform="translate(0,-802.36218)"><g id="g6623" transform="matrix(0.77317142,0,0,0.84676638,50.315322,1009.987)" style="fill:none;stroke:#bcb6b6;stroke-opacity:1"><circle id="circle6625" cx="0" cy="0" r="50" d="M 50,0 C 50,27.614237 27.614237,50 0,50 -27.614237,50 -50,27.614237 -50,0 c 0,-27.614237 22.385763,-50 50,-50 27.614237,0 50,22.385763 50,50 z" style="fill:none;stroke:#bcb6b6;stroke-width:2;stroke-opacity:1"/><circle id="circle6627" cx="0" cy="0" r="33.333" d="M 33.333332,0 C 33.333332,18.409491 18.409491,33.333332 0,33.333332 -18.409491,33.333332 -33.333332,18.409491 -33.333332,0 c 0,-18.409491 14.923841,-33.333332 33.333332,-33.333332 18.409491,0 33.333332,14.923841 33.333332,33.333332 z" style="fill:none;stroke:#bcb6b6;stroke-width:1;stroke-opacity:1"/><circle id="circle6629" cx="0" cy="0" r="16.667" d="M 16.666666,0 C 16.666666,9.2047455 9.2047455,16.666666 0,16.666666 -9.2047455,16.666666 -16.666666,9.2047455 -16.666666,0 c 0,-9.2047455 7.4619205,-16.666666 16.666666,-16.666666 9.2047455,0 16.666666,7.4619205 16.666666,16.666666 z" style="fill:none;stroke:#bcb6b6;stroke-width:1;stroke-opacity:1"/><circle id="circle6631" cx="0" cy="0" r="100" d="M 100,0 C 100,55.228475 55.228475,100 0,100 -55.228475,100 -100,55.228475 -100,0 c 0,-55.228475 44.771525,-100 100,-100 55.228475,0 100,44.771525 100,100 z" style="fill:none;stroke:#bcb6b6;stroke-width:2;stroke-opacity:1"/><circle id="circle6633" cx="0" cy="0" r="83.333" d="M 83.333336,0 C 83.333336,46.023731 46.023731,83.333336 0,83.333336 -46.023731,83.333336 -83.333336,46.023731 -83.333336,0 c 0,-46.023731 37.309605,-83.333336 83.333336,-83.333336 46.023731,0 83.333336,37.309605 83.333336,83.333336 z" style="fill:none;stroke:#bcb6b6;stroke-width:1;stroke-opacity:1"/><circle id="circle6635" cx="0" cy="0" r="66.667" d="M 66.666664,0 C 66.666664,36.818982 36.818982,66.666664 0,66.666664 -36.818982,66.666664 -66.666664,36.818982 -66.666664,0 c 0,-36.818982 29.847682,-66.666664 66.666664,-66.666664 36.818982,0 66.666664,29.847682 66.666664,66.666664 z" style="fill:none;stroke:#bcb6b6;stroke-width:1;stroke-opacity:1"/><circle id="circle6637" cx="0" cy="0" r="150" d="M 150,0 C 150,82.842712 82.842712,150 0,150 -82.842712,150 -150,82.842712 -150,0 c 0,-82.842712 67.157288,-150 150,-150 82.842712,0 150,67.157288 150,150 z" style="fill:none;stroke:#bcb6b6;stroke-width:2;stroke-opacity:1"/><circle id="circle6639" cx="0" cy="0" r="133.333" d="M 133.33333,0 C 133.33333,73.637964 73.637964,133.33333 0,133.33333 -73.637964,133.33333 -133.33333,73.637964 -133.33333,0 c 0,-73.637964 59.695366,-133.33333 133.33333,-133.33333 73.637964,0 133.33333,59.695366 133.33333,133.33333 z" style="fill:none;stroke:#bcb6b6;stroke-width:1;stroke-opacity:1"/><circle id="circle6641" cx="0" cy="0" r="116.667" d="M 116.66666,0 C 116.66666,64.433215 64.433215,116.66666 0,116.66666 -64.433215,116.66666 -116.66666,64.433215 -116.66666,0 c 0,-64.433215 52.233445,-116.66666 116.66666,-116.66666 64.433215,0 116.66666,52.233445 116.66666,116.66666 z" style="fill:none;stroke:#bcb6b6;stroke-width:1;stroke-opacity:1"/><circle id="circle6643" cx="0" cy="0" r="200" d="m 200,0 c 0,110.45695 -89.54305,200 -200,200 -110.45695,0 -200,-89.54305 -200,-200 0,-110.45695 89.54305,-200 200,-200 110.45695,0 200,89.54305 200,200 z" style="fill:none;stroke:#bcb6b6;stroke-width:2;stroke-opacity:1"/><circle id="circle6645" cx="0" cy="0" r="183.333" d="M 183.33333,0 C 183.33333,101.2522 101.2522,183.33333 0,183.33333 -101.2522,183.33333 -183.33333,101.2522 -183.33333,0 c 0,-101.2522 82.08113,-183.33333 183.33333,-183.33333 101.2522,0 183.33333,82.08113 183.33333,183.33333 z" style="fill:none;stroke:#bcb6b6;stroke-width:1;stroke-opacity:1"/><circle id="circle6647" cx="0" cy="0" r="166.667" d="M 166.66667,0 C 166.66667,92.047461 92.047461,166.66667 0,166.66667 -92.047461,166.66667 -166.66667,92.047461 -166.66667,0 c 0,-92.047461 74.619209,-166.66667 166.66667,-166.66667 92.047461,0 166.66667,74.619209 166.66667,166.66667 z" style="fill:none;stroke:#bcb6b6;stroke-width:1;stroke-opacity:1"/><circle id="circle6649" cx="0" cy="0" r="250" d="M 250,0 C 250,138.07119 138.07119,250 0,250 -138.07119,250 -250,138.07119 -250,0 c 0,-138.07119 111.92881,-250 250,-250 138.07119,0 250,111.92881 250,250 z" style="fill:none;stroke:#bcb6b6;stroke-width:2;stroke-opacity:1"/><circle id="circle6651" cx="0" cy="0" r="233.333" d="M 233.33333,0 C 233.33333,128.86644 128.86644,233.33333 0,233.33333 -128.86644,233.33333 -233.33333,128.86644 -233.33333,0 c 0,-128.86644 104.46689,-233.33333 233.33333,-233.33333 128.86644,0 233.33333,104.46689 233.33333,233.33333 z" style="fill:none;stroke:#bcb6b6;stroke-width:1;stroke-opacity:1"/><circle id="circle6653" cx="0" cy="0" r="216.667" d="M 216.66667,0 C 216.66667,119.6617 119.6617,216.66667 0,216.66667 -119.6617,216.66667 -216.66667,119.6617 -216.66667,0 c 0,-119.6617 97.00497,-216.66667 216.66667,-216.66667 119.6617,0 216.66667,97.00497 216.66667,216.66667 z" style="fill:none;stroke:#bcb6b6;stroke-width:1;stroke-opacity:1"/><path id="path6655" d="M 0,0 0,50" style="fill:none;stroke:#bcb6b6;stroke-width:2;stroke-opacity:1"/><path id="path6657" d="M 0,0 50,0" style="fill:none;stroke:#bcb6b6;stroke-width:2;stroke-opacity:1"/><path id="path6659" d="M 0,0 0,-50" style="fill:none;stroke:#bcb6b6;stroke-width:2;stroke-opacity:1"/><path id="path6661" d="M 0,0 -50,0" style="fill:none;stroke:#bcb6b6;stroke-width:2;stroke-opacity:1"/><path id="path6663" d="M 50,0 250,0" style="fill:none;stroke:#bcb6b6;stroke-width:2;stroke-opacity:1"/><path id="path6665" d="M 48.296291,-12.940952 241.48146,-64.704761" style="fill:none;stroke:#bcb6b6;stroke-width:2;stroke-opacity:1"/><path id="path6667" d="M 43.30127,-25 216.50635,-125" style="fill:none;stroke:#bcb6b6;stroke-width:2;stroke-opacity:1"/><path id="path6669" d="M 35.355339,-35.355339 176.7767,-176.7767" style="fill:none;stroke:#bcb6b6;stroke-width:2;stroke-opacity:1"/><path id="path6671" d="M 25,-43.30127 125,-216.50635" style="fill:none;stroke:#bcb6b6;stroke-width:2;stroke-opacity:1"/><path id="path6673" d="M 12.940952,-48.296291 64.704761,-241.48146" style="fill:none;stroke:#bcb6b6;stroke-width:2;stroke-opacity:1"/><path id="path6675" d="M 0,-50 0,-250" style="fill:none;stroke:#bcb6b6;stroke-width:2;stroke-opacity:1"/><path id="path6677" d="M -12.940952,-48.296291 -64.704761,-241.48146" style="fill:none;stroke:#bcb6b6;stroke-width:2;stroke-opacity:1"/><path id="path6679" d="M -25,-43.30127 -125,-216.50635" style="fill:none;stroke:#bcb6b6;stroke-width:2;stroke-opacity:1"/><path id="path6681" d="M -35.355339,-35.355339 -176.7767,-176.7767" style="fill:none;stroke:#bcb6b6;stroke-width:2;stroke-opacity:1"/><path id="path6683" d="M -43.30127,-25 -216.50635,-125" style="fill:none;stroke:#bcb6b6;stroke-width:2;stroke-opacity:1"/><path id="path6685" d="M -48.296291,-12.940952 -241.48146,-64.704761" style="fill:none;stroke:#bcb6b6;stroke-width:2;stroke-opacity:1"/><path id="path6687" d="M -50,0 -250,0" style="fill:none;stroke:#bcb6b6;stroke-width:2;stroke-opacity:1"/><path id="path6689" d="M -48.296291,12.940952 -241.48146,64.704761" style="fill:none;stroke:#bcb6b6;stroke-width:2;stroke-opacity:1"/><path id="path6691" d="M -43.30127,25 -216.50635,125" style="fill:none;stroke:#bcb6b6;stroke-width:2;stroke-opacity:1"/><path id="path6693" d="M -35.355339,35.355339 -176.7767,176.7767" style="fill:none;stroke:#bcb6b6;stroke-width:2;stroke-opacity:1"/><path id="path6695" d="M -25,43.30127 -125,216.50635" style="fill:none;stroke:#bcb6b6;stroke-width:2;stroke-opacity:1"/><path id="path6697" d="M -12.940952,48.296291 -64.704761,241.48146" style="fill:none;stroke:#bcb6b6;stroke-width:2;stroke-opacity:1"/><path id="path6699" d="M 0,50 0,250" style="fill:none;stroke:#bcb6b6;stroke-width:2;stroke-opacity:1"/><path id="path6701" d="M 12.940952,48.296291 64.704761,241.48146" style="fill:none;stroke:#bcb6b6;stroke-width:2;stroke-opacity:1"/><path id="path6703" d="M 25,43.30127 125,216.50635" style="fill:none;stroke:#bcb6b6;stroke-width:2;stroke-opacity:1"/><path id="path6705" d="M 35.355339,35.355339 176.7767,176.7767" style="fill:none;stroke:#bcb6b6;stroke-width:2;stroke-opacity:1"/><path id="path6707" d="M 43.30127,25 216.50635,125" style="fill:none;stroke:#bcb6b6;stroke-width:2;stroke-opacity:1"/><path id="path6709" d="M 48.296291,12.940952 241.48146,64.704761" style="fill:none;stroke:#bcb6b6;stroke-width:2;stroke-opacity:1"/><circle id="circle6711" cx="0" cy="0" r="2.5" d="M 2.5,0 C 2.5,1.3807119 1.3807119,2.5 0,2.5 -1.3807119,2.5 -2.5,1.3807119 -2.5,0 c 0,-1.3807119 1.1192881,-2.5 2.5,-2.5 1.3807119,0 2.5,1.1192881 2.5,2.5 z" style="fill:none;stroke:#bcb6b6;stroke-width:0;stroke-opacity:1"/><text id="text6713" x="274" y="6.57" style="font-size:18px;font-style:normal;font-weight:400;text-align:center;text-anchor:middle;fill:none;stroke:#bcb6b6;stroke-opacity:1">0</text><text id="text6715" x="264.664" y="-64.346" style="font-size:18px;font-style:normal;font-weight:400;text-align:center;text-anchor:middle;fill:none;stroke:#bcb6b6;stroke-opacity:1">15</text><text id="text6717" x="237.291" y="-130.43" style="font-size:18px;font-style:normal;font-weight:400;text-align:center;text-anchor:middle;fill:none;stroke:#bcb6b6;stroke-opacity:1">30</text><text id="text6719" x="193.747" y="-187.177" style="font-size:18px;font-style:normal;font-weight:400;text-align:center;text-anchor:middle;fill:none;stroke:#bcb6b6;stroke-opacity:1">45</text><text id="text6721" x="137" y="-230.721" style="font-size:18px;font-style:normal;font-weight:400;text-align:center;text-anchor:middle;fill:none;stroke:#bcb6b6;stroke-opacity:1">60</text><text id="text6723" x="70.916" y="-258.094" style="font-size:18px;font-style:normal;font-weight:400;text-align:center;text-anchor:middle;fill:none;stroke:#bcb6b6;stroke-opacity:1">75</text><text id="text6725" x="0" y="-267.43" style="font-size:18px;font-style:normal;font-weight:400;text-align:center;text-anchor:middle;fill:none;stroke:#bcb6b6;stroke-opacity:1">90</text><text id="text6727" x="-70.916" y="-258.094" style="font-size:18px;font-style:normal;font-weight:400;text-align:center;text-anchor:middle;fill:none;stroke:#bcb6b6;stroke-opacity:1">105</text><text id="text6729" x="-137" y="-230.721" style="font-size:18px;font-style:normal;font-weight:400;text-align:center;text-anchor:middle;fill:none;stroke:#bcb6b6;stroke-opacity:1">120</text><text id="text6731" x="-193.747" y="-187.177" style="font-size:18px;font-style:normal;font-weight:400;text-align:center;text-anchor:middle;fill:none;stroke:#bcb6b6;stroke-opacity:1">135</text><text id="text6733" x="-237.291" y="-130.43" style="font-size:18px;font-style:normal;font-weight:400;text-align:center;text-anchor:middle;fill:none;stroke:#bcb6b6;stroke-opacity:1">150</text><text id="text6735" x="-264.664" y="-64.346" style="font-size:18px;font-style:normal;font-weight:400;text-align:center;text-anchor:middle;fill:none;stroke:#bcb6b6;stroke-opacity:1">165</text><text id="text6737" x="-274" y="6.57" style="font-size:18px;font-style:normal;font-weight:400;text-align:center;text-anchor:middle;fill:none;stroke:#bcb6b6;stroke-opacity:1">180</text><text id="text6739" x="-264.664" y="77.486" style="font-size:18px;font-style:normal;font-weight:400;text-align:center;text-anchor:middle;fill:none;stroke:#bcb6b6;stroke-opacity:1">195</text><text id="text6741" x="-237.291" y="143.57" style="font-size:18px;font-style:normal;font-weight:400;text-align:center;text-anchor:middle;fill:none;stroke:#bcb6b6;stroke-opacity:1">210</text><text id="text6743" x="-193.747" y="200.317" style="font-size:18px;font-style:normal;font-weight:400;text-align:center;text-anchor:middle;fill:none;stroke:#bcb6b6;stroke-opacity:1">225</text><text id="text6745" x="-137" y="243.861" style="font-size:18px;font-style:normal;font-weight:400;text-align:center;text-anchor:middle;fill:none;stroke:#bcb6b6;stroke-opacity:1">240</text><text id="text6747" x="-70.916" y="271.234" style="font-size:18px;font-style:normal;font-weight:400;text-align:center;text-anchor:middle;fill:none;stroke:#bcb6b6;stroke-opacity:1">255</text><text id="text6749" x="0" y="280.57" style="font-size:18px;font-style:normal;font-weight:400;text-align:center;text-anchor:middle;fill:none;stroke:#bcb6b6;stroke-opacity:1">270</text><text id="text6751" x="70.916" y="271.234" style="font-size:18px;font-style:normal;font-weight:400;text-align:center;text-anchor:middle;fill:none;stroke:#bcb6b6;stroke-opacity:1">285</text><text id="text6753" x="137" y="243.861" style="font-size:18px;font-style:normal;font-weight:400;text-align:center;text-anchor:middle;fill:none;stroke:#bcb6b6;stroke-opacity:1">300</text><text id="text6755" x="193.747" y="200.317" style="font-size:18px;font-style:normal;font-weight:400;text-align:center;text-anchor:middle;fill:none;stroke:#bcb6b6;stroke-opacity:1">315</text><text id="text6757" x="237.291" y="143.57" style="font-size:18px;font-style:normal;font-weight:400;text-align:center;text-anchor:middle;fill:none;stroke:#bcb6b6;stroke-opacity:1">330</text><text id="text6759" x="264.664" y="77.486" style="font-size:18px;font-style:normal;font-weight:400;text-align:center;text-anchor:middle;fill:none;stroke:#bcb6b6;stroke-opacity:1">345</text></g><path style="fill:red;fill-rule:evenodd;stroke:#000;stroke-width:1px;stroke-linecap:butt;stroke-linejoin:miter;stroke-opacity:1" id="path3096-7" d="m 53.465348,179.70297 c 0,3.00749 -2.659695,5.44555 -5.940594,5.44555 -3.2809,0 -5.940595,-2.43806 -5.940595,-5.44555 0,-3.00749 2.659695,-5.44554 5.940595,-5.44554 3.280899,0 5.940594,2.43805 5.940594,5.44554 z" transform="translate(140.59406,682.5602)"/><path style="fill:red;fill-rule:evenodd;stroke:#000;stroke-width:1px;stroke-linecap:butt;stroke-linejoin:miter;stroke-opacity:1" id="path3096-2" d="m 53.465348,179.70297 c 0,3.00749 -2.659695,5.44555 -5.940594,5.44555 -3.2809,0 -5.940595,-2.43806 -5.940595,-5.44555 0,-3.00749 2.659695,-5.44554 5.940595,-5.44554 3.280899,0 5.940594,2.43805 5.940594,5.44554 z" transform="translate(102.9703,765.72851)"/><path style="fill:red;fill-rule:evenodd;stroke:#000;stroke-width:1px;stroke-linecap:butt;stroke-linejoin:miter;stroke-opacity:1" id="path3096-3" d="m 53.465348,179.70297 c 0,3.00749 -2.659695,5.44555 -5.940594,5.44555 -3.2809,0 -5.940595,-2.43806 -5.940595,-5.44555 0,-3.00749 2.659695,-5.44554 5.940595,-5.44554 3.280899,0 5.940594,2.43805 5.940594,5.44554 z" transform="translate(2.7320751,830.5986)"/><flowRoot id="flowRoot3138" transform="translate(26.732671,850.38199)" xml:space="preserve" style="font-size:22px;font-style:normal;font-weight:400;fill:red;fill-opacity:1;stroke:none;font-family:Bitstream Vera Sans"><flowRegion id="flowRegion3140"><rect id="rect3142" width="23.762" height="36.634" x="9.901" y="160.396" style="font-size:22px;fill:red"/></flowRegion><flowPara id="flowPara3144">1</flowPara></flowRoot><flowRoot id="flowRoot3138-4" transform="translate(150.22859,773.096)" xml:space="preserve" style="font-size:22px;font-style:normal;font-weight:400;fill:red;fill-opacity:1;stroke:none;font-family:Bitstream Vera Sans"><flowRegion id="flowRegion3140-6"><rect id="rect3142-7" width="23.762" height="36.634" x="9.901" y="160.396" style="font-size:22px;fill:red"/></flowRegion><flowPara id="flowPara3144-6">2</flowPara></flowRoot><flowRoot id="flowRoot3138-5" transform="translate(186.86225,688.93758)" xml:space="preserve" style="font-size:22px;font-style:normal;font-weight:400;fill:red;fill-opacity:1;stroke:none;font-family:Bitstream Vera Sans"><flowRegion id="flowRegion3140-9"><rect id="rect3142-78" width="23.762" height="36.634" x="9.901" y="160.396" style="font-size:22px;fill:red"/></flowRegion><flowPara id="flowPara3144-5">3</flowPara></flowRoot><g id="g4057" transform="matrix(0.89260328,0,0,0.97523083,32.504962,850.30267)" style="stroke:#000;stroke-width:.9998436;stroke-miterlimit:4;stroke-opacity:1;stroke-dasharray:none"><g id="content" fill-rule="even-odd" stroke-miterlimit="10.433" font-size-adjust="none" font-stretch="normal" font-style="normal" font-variant="normal" font-weight="normal" letter-spacing="normal" transform="matrix(0.35714286,0,0,-0.35714286,-62.5,225)" word-spacing="normal" xml:space="preserve" style="font-style:normal;font-variant:normal;font-weight:400;font-stretch:normal;letter-spacing:normal;word-spacing:normal;text-anchor:start;fill:none;stroke:#000;stroke-width:2.79956198;stroke-linecap:butt;stroke-linejoin:miter;stroke-miterlimit:4;stroke-opacity:1;stroke-dasharray:none;stroke-dashoffset:0"><path id="path4060" d="m 472.49,394.04 0,0.03 0,0.03 -0.01,0.01 0,0.02 0,0.01 -0.01,0.02 0,0.02 -0.01,0.01 -0.01,0.02 -0.01,0.02 -0.01,0.03 -0.01,0.02 -0.02,0.02 -0.02,0.03 -0.02,0.03 -0.02,0.03 -0.03,0.03 -0.03,0.04 -0.01,0.02 -0.02,0.02 -0.02,0.02 -0.02,0.02 -0.02,0.02 -0.02,0.03 -0.02,0.02 -0.02,0.02 -0.02,0.03 -0.03,0.02 -0.02,0.03 -0.03,0.03 -0.02,0.03 -0.03,0.03 -0.03,0.03 -0.03,0.03 -0.03,0.03 -0.03,0.03 -0.04,0.04 -0.03,0.03 -0.04,0.04 -0.03,0.03 -0.04,0.04 -0.04,0.04 c -6.23,6.28 -7.82,15.69 -7.82,23.31 0,8.67 1.89,17.34 8.02,23.57 0.65,0.59 0.65,0.69 0.65,0.84 0,0.35 -0.2,0.5 -0.5,0.5 -0.5,0 -4.98,-3.39 -7.92,-9.72 -2.54,-5.47 -3.14,-11 -3.14,-15.19 0,-3.88 0.55,-9.91 3.29,-15.54 2.99,-6.12 7.27,-9.36 7.77,-9.36 0.3,0 0.5,0.15 0.5,0.49 z" style="fill:#000;stroke:#000;stroke-width:2.79956198;stroke-miterlimit:4;stroke-opacity:1;stroke-dasharray:none"/><path id="path4062" d="m 479.38,408.94 -0.01,-0.07 -0.02,-0.08 -0.01,-0.07 -0.02,-0.08 -0.03,-0.16 -0.04,-0.16 -0.04,-0.16 -0.03,-0.16 -0.04,-0.16 -0.04,-0.16 -0.01,-0.08 -0.02,-0.07 -0.02,-0.07 -0.01,-0.07 -0.02,-0.07 -0.01,-0.07 -0.01,-0.06 -0.02,-0.06 -0.01,-0.05 -0.01,-0.06 -0.01,-0.05 0,-0.04 -0.01,-0.04 0,-0.04 -0.01,-0.03 0,-0.02 c 0,-0.9 0.7,-1.35 1.45,-1.35 0.6,0 1.5,0.4 1.84,1.4 0.1,0.2 1.8,6.97 1.99,7.87 0.4,1.64 1.3,5.13 1.6,6.47 0.2,0.65 1.59,2.99 2.79,4.09 0.4,0.34 1.84,1.64 3.99,1.64 1.29,0 2.03,-0.6 2.09,-0.6 -1.5,-0.25 -2.59,-1.44 -2.59,-2.73 0,-0.8 0.54,-1.75 1.89,-1.75 1.34,0 2.74,1.14 2.74,2.94 0,1.74 -1.6,3.24 -4.13,3.24 -3.24,0 -5.43,-2.44 -6.38,-3.84 -0.4,2.24 -2.19,3.84 -4.53,3.84 -2.3,0 -3.24,-1.95 -3.69,-2.84 -0.9,-1.7 -1.54,-4.68 -1.54,-4.83 0,-0.5 0.49,-0.5 0.59,-0.5 0.5,0 0.55,0.05 0.85,1.14 0.84,3.54 1.84,5.93 3.64,5.93 0.84,0 1.54,-0.4 1.54,-2.29 0,-1.04 -0.15,-1.59 -0.8,-4.18 z" style="fill:#000;stroke:#000;stroke-width:2.79956198;stroke-miterlimit:4;stroke-opacity:1;stroke-dasharray:none"/><path id="path4064" d="m 508.68,421.18 0,0.04 0,0.04 0,0.04 0,0.04 0,0.04 0,0.04 0,0.03 0,0.04 -0.01,0.03 0,0.03 0,0.04 0,0.03 -0.01,0.02 0,0.03 0,0.03 -0.01,0.03 0,0.02 0,0.02 -0.02,0.05 -0.01,0.04 -0.01,0.04 -0.02,0.03 -0.02,0.03 -0.02,0.03 -0.03,0.03 -0.02,0.02 -0.03,0.02 -0.04,0.02 -0.03,0.01 -0.04,0.01 -0.05,0.02 -0.05,0 -0.02,0.01 -0.03,0 -0.03,0.01 -0.02,0 -0.03,0 -0.03,0 -0.04,0 -0.03,0.01 -0.03,0 -0.04,0 -0.03,0 -0.04,0 -0.04,0 -0.04,0 -0.04,0 -0.04,0 -0.05,0 -0.04,0 c -2.24,-2.19 -5.41,-2.23 -6.84,-2.23 v -1.25 c 0.84,0 3.14,0 5.06,0.97 v -17.78 c 0,-1.15 0,-1.61 -3.49,-1.61 h -1.33 V 399 h 12.45 v 1.25 h -1.32 c -3.49,0 -3.49,0.46 -3.49,1.61 z" style="fill:#000;stroke:#000;stroke-width:2.79956198;stroke-miterlimit:4;stroke-opacity:1;stroke-dasharray:none"/><path id="path4066" d="m 530.11,406.05 0,0.31 -0.01,0.29 -0.02,0.29 -0.02,0.28 -0.04,0.27 -0.03,0.26 -0.05,0.26 -0.05,0.24 -0.06,0.24 -0.07,0.23 -0.07,0.22 -0.07,0.21 -0.09,0.2 -0.09,0.19 -0.09,0.18 -0.1,0.18 -0.11,0.16 -0.11,0.15 -0.12,0.15 -0.12,0.13 -0.13,0.13 -0.13,0.11 -0.14,0.1 -0.15,0.1 -0.15,0.08 -0.15,0.07 -0.16,0.06 -0.16,0.05 -0.17,0.04 -0.17,0.03 -0.17,0.02 -0.18,0 c -1.65,0 -2.65,-1.24 -2.65,-2.64 0,-1.34 1,-2.64 2.65,-2.64 0.59,0 1.24,0.2 1.74,0.65 0.15,0.1 0.2,0.15 0.25,0.15 0.05,0 0.1,-0.05 0.1,-0.75 0,-3.69 -1.75,-6.67 -3.39,-8.32 -0.55,-0.55 -0.55,-0.65 -0.55,-0.8 0,-0.34 0.25,-0.54 0.5,-0.54 0.55,0 4.53,3.83 4.53,9.66 z" style="fill:#000;stroke:#000;stroke-width:2.79956198;stroke-miterlimit:4;stroke-opacity:1;stroke-dasharray:none"/><path id="path4068" d="m 577.91,422.89 -0.02,0.94 -0.06,0.94 -0.11,0.91 -0.15,0.91 -0.18,0.88 -0.23,0.87 -0.26,0.85 -0.3,0.83 -0.34,0.81 -0.37,0.79 -0.4,0.76 -0.43,0.74 -0.47,0.71 -0.49,0.69 -0.53,0.66 -0.55,0.63 -0.58,0.6 -0.6,0.57 -0.63,0.54 -0.65,0.51 -0.67,0.47 -0.7,0.44 -0.71,0.39 -0.74,0.37 -0.75,0.32 -0.76,0.29 -0.79,0.24 -0.8,0.2 -0.81,0.16 -0.82,0.11 -0.84,0.07 -0.84,0.03 v -1.1 c 5.03,0 11.75,-4.53 11.75,-17.13 0,-12.71 -7.02,-16.84 -11.7,-16.84 h 0 c -4.93,0 -11.76,4.28 -11.76,16.84 0,12.8 6.93,17.13 11.71,17.13 v 1.1 c -8.92,0 -16.54,-7.97 -16.54,-18.23 0,-10.21 7.67,-17.99 16.54,-17.99 9.07,0 16.58,7.92 16.58,17.99 z" style="fill:#000;stroke:#000;stroke-width:2.79956198;stroke-miterlimit:4;stroke-opacity:1;stroke-dasharray:none"/><polygon id="polygon4070" points="569 426.62 569 424.93 553.71 424.93 553.71 426.62 552.46 426.62 552.46 419.45 553.71 419.45 553.71 421.14 569 421.14 569 419.45 570.24 419.45 570.24 426.62" style="fill:#000;stroke:#000;stroke-width:2.79956198;stroke-miterlimit:4;stroke-opacity:1;stroke-dasharray:none"/><path id="path4072" d="m 592.68,421.18 0,0.04 0,0.04 0,0.04 0,0.04 0,0.04 0,0.04 0,0.03 0,0.04 -0.01,0.03 0,0.03 0,0.04 0,0.03 -0.01,0.02 0,0.03 0,0.03 -0.01,0.03 0,0.02 0,0.02 -0.02,0.05 -0.01,0.04 -0.01,0.04 -0.02,0.03 -0.02,0.03 -0.02,0.03 -0.03,0.03 -0.02,0.02 -0.03,0.02 -0.04,0.02 -0.03,0.01 -0.04,0.01 -0.05,0.02 -0.05,0 -0.02,0.01 -0.03,0 -0.03,0.01 -0.02,0 -0.03,0 -0.03,0 -0.04,0 -0.03,0.01 -0.03,0 -0.04,0 -0.03,0 -0.04,0 -0.04,0 -0.04,0 -0.04,0 -0.04,0 -0.05,0 -0.04,0 c -2.24,-2.19 -5.41,-2.23 -6.84,-2.23 v -1.25 c 0.84,0 3.14,0 5.05,0.97 v -17.78 c 0,-1.15 0,-1.61 -3.48,-1.61 h -1.33 V 399 h 12.45 v 1.25 h -1.32 c -3.49,0 -3.49,0.46 -3.49,1.61 z" style="fill:#000;stroke:#000;stroke-width:2.79956198;stroke-miterlimit:4;stroke-opacity:1;stroke-dasharray:none"/><path id="path4074" d="m 617.4,418.45 -0.01,0.37 0,0.39 -0.01,0.39 -0.01,0.41 -0.04,0.84 -0.06,0.88 -0.09,0.92 -0.1,0.94 -0.14,0.98 -0.16,1 -0.2,1.02 -0.23,1.04 -0.27,1.05 -0.3,1.06 -0.35,1.06 -0.39,1.07 -0.22,0.53 -0.22,0.54 -0.24,0.53 -0.25,0.53 c -2.99,6.12 -7.27,9.36 -7.77,9.36 -0.3,0 -0.5,-0.2 -0.5,-0.5 0,-0.15 0,-0.25 0.94,-1.15 4.89,-4.92 7.73,-12.85 7.73,-23.26 0,-8.52 -1.85,-17.28 -8.02,-23.56 -0.65,-0.6 -0.65,-0.69 -0.65,-0.85 0,-0.29 0.2,-0.49 0.5,-0.49 0.5,0 4.98,3.38 7.92,9.71 2.54,5.48 3.14,11.01 3.14,15.19 z" style="fill:#000;stroke:#000;stroke-width:2.79956198;stroke-miterlimit:4;stroke-opacity:1;stroke-dasharray:none"/></g></g><g style="stroke:#000;stroke-width:1;stroke-miterlimit:4;stroke-opacity:1;stroke-dasharray:none" id="g5176" transform="matrix(1.0021843,0,0,0.99042497,58.240696,764.69236)"><g font-variant="normal" style="font-style:normal;font-variant:normal;font-weight:400;font-stretch:normal;letter-spacing:normal;word-spacing:normal;text-anchor:start;fill:none;stroke:#000;stroke-width:2.79999995;stroke-linecap:butt;stroke-linejoin:miter;stroke-miterlimit:4;stroke-opacity:1;stroke-dasharray:none;stroke-dashoffset:0" id="g5178" fill-rule="even-odd" stroke-miterlimit="10.433" font-size-adjust="none" font-stretch="normal" font-style="normal" font-weight="normal" letter-spacing="normal" transform="matrix(0.35714286,0,0,-0.35714286,-62.5,225)" word-spacing="normal" xml:space="preserve"><path style="fill:#000;stroke:#000;stroke-width:2.79999995;stroke-miterlimit:4;stroke-opacity:1;stroke-dasharray:none" id="path5180" d="m 472.49,394.04 0,0.03 0,0.03 -0.01,0.01 0,0.02 0,0.01 -0.01,0.02 0,0.02 -0.01,0.01 -0.01,0.02 -0.01,0.02 -0.01,0.03 -0.01,0.02 -0.02,0.02 -0.02,0.03 -0.02,0.03 -0.02,0.03 -0.03,0.03 -0.03,0.04 -0.01,0.02 -0.02,0.02 -0.02,0.02 -0.02,0.02 -0.02,0.02 -0.02,0.03 -0.02,0.02 -0.02,0.02 -0.02,0.03 -0.03,0.02 -0.02,0.03 -0.03,0.03 -0.02,0.03 -0.03,0.03 -0.03,0.03 -0.03,0.03 -0.03,0.03 -0.03,0.03 -0.04,0.04 -0.03,0.03 -0.04,0.04 -0.03,0.03 -0.04,0.04 -0.04,0.04 c -6.23,6.28 -7.82,15.69 -7.82,23.31 0,8.67 1.89,17.34 8.02,23.57 0.65,0.59 0.65,0.69 0.65,0.84 0,0.35 -0.2,0.5 -0.5,0.5 -0.5,0 -4.98,-3.39 -7.92,-9.72 -2.54,-5.47 -3.14,-11 -3.14,-15.19 0,-3.88 0.55,-9.91 3.29,-15.54 2.99,-6.12 7.27,-9.36 7.77,-9.36 0.3,0 0.5,0.15 0.5,0.49 z"/><path style="fill:#000;stroke:#000;stroke-width:2.79999995;stroke-miterlimit:4;stroke-opacity:1;stroke-dasharray:none" id="path5182" d="m 479.38,408.94 -0.01,-0.07 -0.02,-0.08 -0.01,-0.07 -0.02,-0.08 -0.03,-0.16 -0.04,-0.16 -0.04,-0.16 -0.03,-0.16 -0.04,-0.16 -0.04,-0.16 -0.01,-0.08 -0.02,-0.07 -0.02,-0.07 -0.01,-0.07 -0.02,-0.07 -0.01,-0.07 -0.01,-0.06 -0.02,-0.06 -0.01,-0.05 -0.01,-0.06 -0.01,-0.05 0,-0.04 -0.01,-0.04 0,-0.04 -0.01,-0.03 0,-0.02 c 0,-0.9 0.7,-1.35 1.45,-1.35 0.6,0 1.5,0.4 1.84,1.4 0.1,0.2 1.8,6.97 1.99,7.87 0.4,1.64 1.3,5.13 1.6,6.47 0.2,0.65 1.59,2.99 2.79,4.09 0.4,0.34 1.84,1.64 3.99,1.64 1.29,0 2.03,-0.6 2.09,-0.6 -1.5,-0.25 -2.59,-1.44 -2.59,-2.73 0,-0.8 0.54,-1.75 1.89,-1.75 1.34,0 2.74,1.14 2.74,2.94 0,1.74 -1.6,3.24 -4.13,3.24 -3.24,0 -5.43,-2.44 -6.38,-3.84 -0.4,2.24 -2.19,3.84 -4.53,3.84 -2.3,0 -3.24,-1.95 -3.69,-2.84 -0.9,-1.7 -1.54,-4.68 -1.54,-4.83 0,-0.5 0.49,-0.5 0.59,-0.5 0.5,0 0.55,0.05 0.85,1.14 0.84,3.54 1.84,5.93 3.64,5.93 0.84,0 1.54,-0.4 1.54,-2.29 0,-1.04 -0.15,-1.59 -0.8,-4.18 z"/><path style="fill:#000;stroke:#000;stroke-width:2.79999995;stroke-miterlimit:4;stroke-opacity:1;stroke-dasharray:none" id="path5184" d="m 514.61,405.35 h -1.19 c -0.1,-0.77 -0.45,-2.83 -0.9,-3.18 -0.28,-0.21 -2.97,-0.21 -3.45,-0.21 h -6.42 c 3.66,3.25 4.88,4.22 6.97,5.86 2.58,2.06 4.99,4.22 4.99,7.54 0,4.21 -3.7,6.79 -8.16,6.79 -4.33,0 -7.25,-3.03 -7.25,-6.24 0,-1.78 1.5,-1.95 1.84,-1.95 0.84,0 1.85,0.59 1.85,1.85 0,0.62 -0.24,1.85 -2.05,1.85 1.08,2.47 3.45,3.24 5.09,3.24 3.48,0 5.3,-2.72 5.3,-5.54 0,-3.04 -2.16,-5.45 -3.28,-6.7 l -8.4,-8.3 c -0.35,-0.31 -0.35,-0.38 -0.35,-1.36 h 14.36 z"/><path style="fill:#000;stroke:#000;stroke-width:2.79999995;stroke-miterlimit:4;stroke-opacity:1;stroke-dasharray:none" id="path5186" d="m 530.11,406.05 0,0.31 -0.01,0.29 -0.02,0.29 -0.02,0.28 -0.04,0.27 -0.03,0.26 -0.05,0.26 -0.05,0.24 -0.06,0.24 -0.07,0.23 -0.07,0.22 -0.07,0.21 -0.09,0.2 -0.09,0.19 -0.09,0.18 -0.1,0.18 -0.11,0.16 -0.11,0.15 -0.12,0.15 -0.12,0.13 -0.13,0.13 -0.13,0.11 -0.14,0.1 -0.15,0.1 -0.15,0.08 -0.15,0.07 -0.16,0.06 -0.16,0.05 -0.17,0.04 -0.17,0.03 -0.17,0.02 -0.18,0 c -1.65,0 -2.65,-1.24 -2.65,-2.64 0,-1.34 1,-2.64 2.65,-2.64 0.59,0 1.24,0.2 1.74,0.65 0.15,0.1 0.2,0.15 0.25,0.15 0.05,0 0.1,-0.05 0.1,-0.75 0,-3.69 -1.75,-6.67 -3.39,-8.32 -0.55,-0.55 -0.55,-0.65 -0.55,-0.8 0,-0.34 0.25,-0.54 0.5,-0.54 0.55,0 4.53,3.83 4.53,9.66 z"/><path style="fill:#000;stroke:#000;stroke-width:2.79999995;stroke-miterlimit:4;stroke-opacity:1;stroke-dasharray:none" id="path5188" d="m 577.91,422.89 -0.02,0.94 -0.06,0.94 -0.11,0.91 -0.15,0.91 -0.18,0.88 -0.23,0.87 -0.26,0.85 -0.3,0.83 -0.34,0.81 -0.37,0.79 -0.4,0.76 -0.43,0.74 -0.47,0.71 -0.49,0.69 -0.53,0.66 -0.55,0.63 -0.58,0.6 -0.6,0.57 -0.63,0.54 -0.65,0.51 -0.67,0.47 -0.7,0.44 -0.71,0.39 -0.74,0.37 -0.75,0.32 -0.76,0.29 -0.79,0.24 -0.8,0.2 -0.81,0.16 -0.82,0.11 -0.84,0.07 -0.84,0.03 v -1.1 c 5.03,0 11.75,-4.53 11.75,-17.13 0,-12.71 -7.02,-16.84 -11.7,-16.84 h 0 c -4.93,0 -11.76,4.28 -11.76,16.84 0,12.8 6.93,17.13 11.71,17.13 v 1.1 c -8.92,0 -16.54,-7.97 -16.54,-18.23 0,-10.21 7.67,-17.99 16.54,-17.99 9.07,0 16.58,7.92 16.58,17.99 z"/><polygon style="fill:#000;stroke:#000;stroke-width:2.79999995;stroke-miterlimit:4;stroke-opacity:1;stroke-dasharray:none" id="polygon5190" points="569 419.45 570.24 419.45 570.24 426.62 569 426.62 569 424.93 553.71 424.93 553.71 426.62 552.46 426.62 552.46 419.45 553.71 419.45 553.71 421.14 569 421.14"/><path style="fill:#000;stroke:#000;stroke-width:2.79999995;stroke-miterlimit:4;stroke-opacity:1;stroke-dasharray:none" id="path5192" d="m 598.61,405.35 h -1.19 c -0.1,-0.77 -0.45,-2.83 -0.9,-3.18 -0.28,-0.21 -2.97,-0.21 -3.45,-0.21 h -6.42 c 3.66,3.25 4.88,4.22 6.97,5.86 2.58,2.06 4.99,4.22 4.99,7.54 0,4.21 -3.7,6.79 -8.16,6.79 -4.33,0 -7.25,-3.03 -7.25,-6.24 0,-1.78 1.5,-1.95 1.84,-1.95 0.84,0 1.86,0.59 1.86,1.85 0,0.62 -0.25,1.85 -2.06,1.85 1.08,2.47 3.45,3.24 5.09,3.24 3.48,0 5.3,-2.72 5.3,-5.54 0,-3.04 -2.16,-5.45 -3.28,-6.7 l -8.4,-8.3 c -0.35,-0.31 -0.35,-0.38 -0.35,-1.36 h 14.36 z"/><path style="fill:#000;stroke:#000;stroke-width:2.79999995;stroke-miterlimit:4;stroke-opacity:1;stroke-dasharray:none" id="path5194" d="m 617.4,418.45 -0.01,0.37 0,0.39 -0.01,0.39 -0.01,0.41 -0.04,0.84 -0.06,0.88 -0.09,0.92 -0.1,0.94 -0.14,0.98 -0.16,1 -0.2,1.02 -0.23,1.04 -0.27,1.05 -0.3,1.06 -0.35,1.06 -0.39,1.07 -0.22,0.53 -0.22,0.54 -0.24,0.53 -0.25,0.53 c -2.99,6.12 -7.27,9.36 -7.77,9.36 -0.3,0 -0.5,-0.2 -0.5,-0.5 0,-0.15 0,-0.25 0.94,-1.15 4.89,-4.92 7.73,-12.85 7.73,-23.26 0,-8.52 -1.85,-17.28 -8.02,-23.56 -0.65,-0.6 -0.65,-0.69 -0.65,-0.85 0,-0.29 0.2,-0.49 0.5,-0.49 0.5,0 4.98,3.38 7.92,9.71 2.54,5.48 3.14,11.01 3.14,15.19 z"/></g></g></g></svg>