<svg xmlns="http://www.w3.org/2000/svg" xmlns:svg="http://www.w3.org/2000/svg" id="svg2" width="300" height="250" version="1.1"><metadata id="metadata5497"/><defs id="defs4"><marker style="overflow:visible" id="EmptyTriangleInL" orient="auto" refX="0" refY="0"><path style="fill:#fff;fill-rule:evenodd;stroke:#000;stroke-width:1pt;marker-start:none" id="path4222" d="m 5.77,0 -8.65,5 0,-10 8.65,5 z" transform="matrix(-0.8,0,0,-0.8,4.8,0)"/></marker><marker style="overflow:visible" id="EmptyTriangleOutM" orient="auto" refX="0" refY="0"><path style="fill:#fff;fill-rule:evenodd;stroke:#000;stroke-width:1pt;marker-start:none" id="path4234" d="m 5.77,0 -8.65,5 0,-10 8.65,5 z" transform="matrix(0.4,0,0,0.4,-1.8,0)"/></marker><marker style="overflow:visible" id="Arrow1Mend" orient="auto" refX="0" refY="0"><path style="fill-rule:evenodd;stroke:#000;stroke-width:1pt;marker-start:none" id="path4079" d="M 0,0 5,-5 -12.5,0 5,5 0,0 z" transform="matrix(-0.4,0,0,-0.4,-4,0)"/></marker><marker style="overflow:visible" id="Arrow2Lstart" orient="auto" refX="0" refY="0"><path style="font-size:12px;fill-rule:evenodd;stroke-width:.625;stroke-linejoin:round" id="path4088" d="M 8.7185878,4.0337352 -2.2072895,0.01601326 8.7185884,-4.0017078 c -1.7454984,2.3720609 -1.7354408,5.6174519 -6e-7,8.035443 z" transform="matrix(1.1,0,0,1.1,1.1,0)"/></marker><marker style="overflow:visible" id="Arrow1Lstart" orient="auto" refX="0" refY="0"><path style="fill-rule:evenodd;stroke:#000;stroke-width:1pt;marker-start:none" id="path4070" d="M 0,0 5,-5 -12.5,0 5,5 0,0 z" transform="matrix(0.8,0,0,0.8,10,0)"/></marker><marker style="overflow:visible" id="Arrow1Send" orient="auto" refX="0" refY="0"><path style="fill-rule:evenodd;stroke:#000;stroke-width:1pt;marker-start:none" id="path4085" d="M 0,0 5,-5 -12.5,0 5,5 0,0 z" transform="matrix(-0.2,0,0,-0.2,-1.2,0)"/></marker></defs><g id="layer1" transform="translate(0,-815.96051)"><path style="fill:none;stroke:#000;stroke-width:3.88827324" id="path8314" d="m 47.816038,1010.4721 196.131522,0 L 145.8818,843.57965 47.816038,1010.4721 z"/><text style="font-size:18px;font-style:normal;font-weight:400;fill:#000;fill-opacity:1;stroke:none;font-family:Bitstream Vera Sans" id="text8360" x="69.734" y="924.975" xml:space="preserve"><tspan id="tspan8362" x="69.734" y="924.975">a</tspan></text><text style="font-size:18px;font-style:normal;font-weight:400;fill:#000;fill-opacity:1;stroke:none;font-family:Bitstream Vera Sans" id="text8364" x="142.752" y="1034.584" xml:space="preserve"><tspan id="tspan8366" x="142.752" y="1034.584">b</tspan></text><text style="font-size:18px;font-style:normal;font-weight:400;fill:#000;fill-opacity:1;stroke:none;font-family:Bitstream Vera Sans" id="text8368" x="206.438" y="920.58" xml:space="preserve"><tspan id="tspan8370" x="206.438" y="920.58">c</tspan></text><path id="path3041" d="m 47.07113,1010.5212 c 0,17.7824 0,15.6904 0,15.6904" style="fill:none;stroke:#000;stroke-width:3;stroke-linecap:butt;stroke-linejoin:miter;stroke-miterlimit:4;stroke-opacity:1;stroke-dasharray:none"/><path id="path3041-1-5" d="m 243.6318,1011.0442 c 0,17.7824 0,15.6904 0,15.6904" style="fill:none;stroke:#000;stroke-width:3;stroke-linecap:butt;stroke-linejoin:miter;stroke-miterlimit:4;stroke-opacity:1;stroke-dasharray:none"/><path id="path3041-1-5-0" d="m 244.20393,1010.1755 c 15.50869,-8.7003 13.68418,-7.6768 13.68418,-7.6768" style="fill:none;stroke:#000;stroke-width:3;stroke-linecap:butt;stroke-linejoin:miter;stroke-miterlimit:4;stroke-opacity:1;stroke-dasharray:none"/><path id="path3041-1-5-0-6" d="m 147.2078,843.85478 c 15.39596,-8.89827 13.58471,-7.85148 13.58471,-7.85148" style="fill:none;stroke:#000;stroke-width:3;stroke-linecap:butt;stroke-linejoin:miter;stroke-miterlimit:4;stroke-opacity:1;stroke-dasharray:none"/><path id="path3041-1-5-0-7" d="m 32.215484,1003.1496 c 15.677644,8.3921 13.833288,7.4048 13.833288,7.4048" style="fill:none;stroke:#000;stroke-width:3;stroke-linecap:butt;stroke-linejoin:miter;stroke-miterlimit:4;stroke-opacity:1;stroke-dasharray:none"/><path id="path3041-1-5-0-7-3" d="m 131.03317,836.20676 c 15.67764,8.3921 13.83329,7.4048 13.83329,7.4048" style="fill:none;stroke:#000;stroke-width:3;stroke-linecap:butt;stroke-linejoin:miter;stroke-miterlimit:4;stroke-opacity:1;stroke-dasharray:none"/><text id="text3974" x="41.657" y="1045.534" xml:space="preserve" style="font-size:20px;font-style:normal;font-weight:400;line-height:125%;letter-spacing:0;word-spacing:0;fill:#000;fill-opacity:1;stroke:none;font-family:Bitstream Vera Sans"><tspan id="tspan3976" x="41.657" y="1045.534">0</tspan></text><text id="text3974-3" x="224.32" y="1046.044" xml:space="preserve" style="font-size:20px;font-style:normal;font-weight:400;line-height:125%;letter-spacing:0;word-spacing:0;fill:#000;fill-opacity:1;stroke:none;font-family:Bitstream Vera Sans"><tspan id="tspan3976-3" x="224.32" y="1046.044">100</tspan></text><text id="text3974-3-1" x="162.477" y="838.931" xml:space="preserve" style="font-size:20px;font-style:normal;font-weight:400;line-height:125%;letter-spacing:0;word-spacing:0;fill:#000;fill-opacity:1;stroke:none;font-family:Bitstream Vera Sans"><tspan id="tspan3976-3-5" x="162.477" y="838.931">100</tspan></text><text id="text3974-4" x="259.333" y="1006.295" xml:space="preserve" style="font-size:20px;font-style:normal;font-weight:400;line-height:125%;letter-spacing:0;word-spacing:0;fill:#000;fill-opacity:1;stroke:none;font-family:Bitstream Vera Sans"><tspan id="tspan3976-9" x="259.333" y="1006.295">0</tspan></text><text id="text3974-3-0" x="4.527" y="996.881" xml:space="preserve" style="font-size:20px;font-style:normal;font-weight:400;line-height:125%;letter-spacing:0;word-spacing:0;fill:#000;fill-opacity:1;stroke:none;font-family:Bitstream Vera Sans"><tspan id="tspan3976-3-8" x="4.527" y="996.881">100</tspan></text><text id="text3974-9" x="109.751" y="842.069" xml:space="preserve" style="font-size:20px;font-style:normal;font-weight:400;line-height:125%;letter-spacing:0;word-spacing:0;fill:#000;fill-opacity:1;stroke:none;font-family:Bitstream Vera Sans"><tspan id="tspan3976-97" x="109.751" y="842.069">0</tspan></text></g></svg>