<svg xmlns="http://www.w3.org/2000/svg" xmlns:svg="http://www.w3.org/2000/svg" id="svg2" width="300" height="250" version="1.1"><metadata id="metadata5497"/><defs id="defs4"><marker style="overflow:visible" id="EmptyTriangleInL" orient="auto" refX="0" refY="0"><path style="fill:#fff;fill-rule:evenodd;stroke:#000;stroke-width:1pt;marker-start:none" id="path4222" d="m 5.77,0 -8.65,5 0,-10 8.65,5 z" transform="matrix(-0.8,0,0,-0.8,4.8,0)"/></marker><marker style="overflow:visible" id="EmptyTriangleOutM" orient="auto" refX="0" refY="0"><path style="fill:#fff;fill-rule:evenodd;stroke:#000;stroke-width:1pt;marker-start:none" id="path4234" d="m 5.77,0 -8.65,5 0,-10 8.65,5 z" transform="matrix(0.4,0,0,0.4,-1.8,0)"/></marker><marker style="overflow:visible" id="Arrow1Mend" orient="auto" refX="0" refY="0"><path style="fill-rule:evenodd;stroke:#000;stroke-width:1pt;marker-start:none" id="path4079" d="M 0,0 5,-5 -12.5,0 5,5 0,0 z" transform="matrix(-0.4,0,0,-0.4,-4,0)"/></marker><marker style="overflow:visible" id="Arrow2Lstart" orient="auto" refX="0" refY="0"><path style="font-size:12px;fill-rule:evenodd;stroke-width:.625;stroke-linejoin:round" id="path4088" d="M 8.7185878,4.0337352 -2.2072895,0.01601326 8.7185884,-4.0017078 c -1.7454984,2.3720609 -1.7354408,5.6174519 -6e-7,8.035443 z" transform="matrix(1.1,0,0,1.1,1.1,0)"/></marker><marker style="overflow:visible" id="Arrow1Lstart" orient="auto" refX="0" refY="0"><path style="fill-rule:evenodd;stroke:#000;stroke-width:1pt;marker-start:none" id="path4070" d="M 0,0 5,-5 -12.5,0 5,5 0,0 z" transform="matrix(0.8,0,0,0.8,10,0)"/></marker><marker style="overflow:visible" id="Arrow1Send" orient="auto" refX="0" refY="0"><path style="fill-rule:evenodd;stroke:#000;stroke-width:1pt;marker-start:none" id="path4085" d="M 0,0 5,-5 -12.5,0 5,5 0,0 z" transform="matrix(-0.2,0,0,-0.2,-1.2,0)"/></marker></defs><g id="layer1" transform="translate(0,-815.96051)"><path style="fill:none;stroke:#000;stroke-width:3.88827324" id="path8314" d="m 47.816038,1010.4721 196.131522,0 L 145.8818,843.57965 47.816038,1010.4721 z"/><path style="fill:red;fill-rule:evenodd;stroke:#000;stroke-width:1px;stroke-linecap:butt;stroke-linejoin:miter;stroke-opacity:1" id="path3096-7" d="m 53.465348,179.70297 a 5.9405945,5.445545 0 1 1 -11.881189,0 5.9405945,5.445545 0 1 1 11.881189,0 z" transform="translate(195.0495,829.09486)"/><path style="fill:red;fill-rule:evenodd;stroke:#000;stroke-width:1px;stroke-linecap:butt;stroke-linejoin:miter;stroke-opacity:1" id="path3096-2" d="m 53.465348,179.70297 a 5.9405945,5.445545 0 1 1 -11.881189,0 5.9405945,5.445545 0 1 1 11.881189,0 z" transform="translate(-0.99009346,830.08495)"/><path style="fill:red;fill-rule:evenodd;stroke:#000;stroke-width:1px;stroke-linecap:butt;stroke-linejoin:miter;stroke-opacity:1" id="path3096-3" d="m 53.465348,179.70297 a 5.9405945,5.445545 0 1 1 -11.881189,0 5.9405945,5.445545 0 1 1 11.881189,0 z" transform="translate(99.999997,663.74831)"/><flowRoot style="font-size:22px;font-style:normal;font-weight:400;fill:red;fill-opacity:1;stroke:none;font-family:Bitstream Vera Sans" id="flowRoot3138" transform="matrix(1,0,0,1.1234685,19.741912,832.87376)" xml:space="preserve"><flowRegion id="flowRegion3140"><rect style="font-size:22px;fill:red" id="rect3142" width="23.762" height="36.634" x="9.901" y="160.396"/></flowRegion><flowPara id="flowPara3144">1</flowPara></flowRoot><flowRoot style="font-size:22px;font-style:normal;font-weight:400;fill:red;fill-opacity:1;stroke:none;font-family:Bitstream Vera Sans" id="flowRoot3138-4" transform="translate(226.98404,854.4519)" xml:space="preserve"><flowRegion id="flowRegion3140-6"><rect style="font-size:22px;fill:red" id="rect3142-7" width="23.762" height="36.634" x="9.901" y="160.396"/></flowRegion><flowPara id="flowPara3144-6">2</flowPara></flowRoot><flowRoot style="font-size:22px;font-style:normal;font-weight:400;fill:red;fill-opacity:1;stroke:none;font-family:Bitstream Vera Sans" id="flowRoot3138-5" transform="translate(154.32984,661.21688)" xml:space="preserve"><flowRegion id="flowRegion3140-9"><rect style="font-size:22px;fill:red" id="rect3142-78" width="23.762" height="36.634" x="9.901" y="160.396"/></flowRegion><flowPara id="flowPara3144-5">3</flowPara></flowRoot><g style="fill-rule:nonzero" id="g6239" transform="matrix(0.05978435,0.40566446,0.6121041,-0.15381742,-414.83357,914.61878)"><path style="font-size:medium;font-style:normal;font-variant:normal;font-weight:400;font-stretch:normal;text-indent:0;text-align:start;text-decoration:none;line-height:normal;letter-spacing:normal;word-spacing:normal;text-transform:none;direction:ltr;block-progression:tb;writing-mode:lr-tb;text-anchor:start;color:#000;fill:#eb0f0f;fill-opacity:1;fill-rule:nonzero;stroke:none;stroke-width:3.87833333;marker:none;visibility:visible;display:inline;overflow:visible;enable-background:accumulate;font-family:Andale Mono;-inkscape-font-specification:Andale Mono" id="path3285" d="m 505.25966,931.95078 c 44.35314,-28.66755 43.93068,-77.25208 -0.80333,-108.48003 -44.73402,-31.22796 -116.99318,-33.38107 -161.34632,-4.71356 -44.35314,28.6675 -43.93068,77.25203 0.80334,108.47999 l 2.39905,-1.5506 c -43.54527,-30.39813 -43.88403,-77.5314 -0.89394,-105.31791 42.99009,-27.78651 113.09355,-25.74542 156.63881,4.65269 43.54527,30.39812 43.88404,77.53139 0.89395,105.31792 l 2.30844,1.6115 z"/><path style="fill:#dc2929;fill-opacity:1;fill-rule:nonzero;stroke:#d51f1f;stroke-width:2.18479996pt;stroke-opacity:1;marker-start:none" id="path6245" d="m 486.71585,939.77137 7.37399,-17.19101 18.48345,12.90291 -25.85744,4.2881 z"/></g><text style="font-size:18px;font-style:normal;font-weight:400;fill:#000;fill-opacity:1;stroke:none;font-family:Bitstream Vera Sans" id="text8360" x="69.734" y="924.975" xml:space="preserve"><tspan id="tspan8362" x="69.734" y="924.975">a</tspan></text><text style="font-size:18px;font-style:normal;font-weight:400;fill:#000;fill-opacity:1;stroke:none;font-family:Bitstream Vera Sans" id="text8364" x="142.752" y="1034.584" xml:space="preserve"><tspan id="tspan8366" x="142.752" y="1034.584">b</tspan></text><text style="font-size:18px;font-style:normal;font-weight:400;fill:#000;fill-opacity:1;stroke:none;font-family:Bitstream Vera Sans" id="text8368" x="206.438" y="920.58" xml:space="preserve"><tspan id="tspan8370" x="206.438" y="920.58">c</tspan></text></g></svg>